<svg width="197" height="50" viewBox="0 0 197 50" fill="none" xmlns="http://www.w3.org/2000/svg">
<g clip-path="url(#clip0_1_899)">
<path d="M10.9243 33.8139L12.7823 39.0539L15.7553 36.6379L12.6333 32.5139L10.9243 33.8139Z" fill="#C1C230"/>
<path d="M12.002 31.2509L16.35 36.7499L21.8859 32.3659L17.464 26.7539L12.002 31.2509Z" fill="#ACBC37"/>
<path d="M14.2681 23.3731L17.9471 28.0541L22.5921 24.3761L18.8761 19.6201L14.2681 23.3731Z" fill="#46B449"/>
<path d="M8.50928 24.9328L8.73228 26.4158L11.5563 29.7258L15.9413 26.4158L13.3403 22.8518L17.2413 19.6198L13.7853 15.3828L9.47528 18.8388L12.0023 22.1458L8.50928 24.9328Z" fill="#70BE4D"/>
<path d="M6.91138 25.2678L10.2564 22.7408L7.20839 18.9138L6.31738 19.6198C6.31738 19.6198 6.39138 23.4468 6.91138 25.2678Z" fill="#8DC64E"/>
<path d="M19.3223 19.137L22.9643 23.837L27.5723 20.177L23.9303 15.533L19.3223 19.137Z" fill="#35A780"/>
<path d="M15.5322 14.566C15.5322 14.566 18.8022 18.765 18.8762 18.653C18.9502 18.542 23.0382 15.532 23.0382 15.532L19.6572 11.259L15.5322 14.566Z" fill="#34A99C"/>
<path d="M11.5562 9.81003L14.4541 13.489L18.1702 10.626L15.2352 6.87402L11.5562 9.81003Z" fill="#52BB7E"/>
<path d="M9.43799 6.094L10.033 3.30701L11.556 2.229L13.823 5.12801L10.739 7.729L9.43799 6.094Z" fill="#51BB7D"/>
<path d="M13.377 1.41191L16.1639 4.97891L19.657 2.22891L18.653 0.817909L14.4549 0.48291L13.377 1.41191Z" fill="#31AA99"/>
<path d="M19.2852 0L20.6602 1.709L22.0722 0.668007L19.2852 0Z" fill="#33A5A9"/>
<path d="M21.7002 2.006L23.0372 0.854004C23.0372 0.854004 26.7172 1.745 29.2062 2.972L25.0812 6.131L21.7002 2.006Z" fill="#34A99C"/>
<path d="M20.8833 2.73096L24.1533 6.87395L20.0663 10.181L16.9453 6.13096L20.8833 2.73096Z" fill="#34A99C"/>
<path d="M20.2881 10.8869L24.8581 7.09692L28.6131 11.7049L23.9301 15.5319L20.2881 10.8869Z" fill="#309AB6"/>
<path d="M25.1494 6.90694L28.6124 11.2589L33.1084 7.72894L29.6154 3.49194L25.1494 6.90694Z" fill="#2563AE"/>
<path d="M24.1533 15.5319L27.9093 20.1929L32.4403 16.4689L28.7883 11.8069L24.1533 15.5319Z" fill="#247994"/>
<path d="M7.07812 26.4148L10.1161 30.1728L8.10913 31.7518C8.10913 31.7518 7.24512 27.2278 7.07812 26.4148Z" fill="#76BF44"/>
<path d="M3.95699 21.7849H2.31299V23.4289H3.95699V21.7849Z" fill="#8BC546"/>
<path d="M1.67236 16.6841L1.81236 19.2201L2.95436 18.1331L1.67236 16.6841Z" fill="#83C456"/>
<path d="M0.111328 12.364L1.97833 12.671L2.31333 10.832L0.111328 12.364Z" fill="#45B771"/>
<path d="M0 6.13086L0.751999 7.95186L1.365 6.76286L0 6.13086Z" fill="#5CBD80"/>
<path d="M5.32324 2.73096L6.31724 5.17396L7.16124 3.49296L5.32324 2.73096Z" fill="#59BC80"/>
<path d="M6.63338 7.09692L6.31738 11.1379L8.50938 9.38193L6.63338 7.09692Z" fill="#52BA79"/>
<path d="M9.58722 10.1809L12.4292 13.8409L8.86222 16.6839L7.72021 15.3829V11.7509L9.58722 10.1809Z" fill="#8DC64E"/>
<path d="M4.42525 13.9009L5.45025 15.1469L4.13225 16.2019L3.13525 14.9579L4.42525 13.9009Z" fill="#89C550"/>
<mask id="mask0_1_899" style="mask-type:luminance" maskUnits="userSpaceOnUse" x="14" y="3" width="45" height="47">
<path d="M33.8144 7.95188L29.1334 11.6679L32.6254 16.2009L23.4104 24.0039L27.0514 28.6869L26.9124 28.8259L23.2984 24.2279L18.6354 27.8499L22.2574 32.3659L14.0654 39.0359C14.0654 39.0359 15.9414 44.1089 19.5084 47.0629C19.5084 47.0629 23.8004 51.3549 33.4984 47.9539C33.4984 47.9539 31.5484 46.2249 31.8824 42.6019V31.9019C31.8824 31.9019 31.8384 26.4399 37.9644 27.1089V43.7519C37.9644 43.7519 38.1514 45.7279 40.5024 44.9759C40.5024 44.9759 55.9244 35.6659 57.9934 26.1679C57.9934 26.1679 59.9684 21.4669 51.3174 15.1669C51.3174 15.1669 40.6524 7.06087 29.8754 3.56787L33.8144 7.95188Z" fill="white"/>
</mask>
<g mask="url(#mask0_1_899)">
<path d="M29.1323 11.6679L33.8143 7.9519L37.5113 12.6709L32.6253 16.2019L29.1323 11.6679Z" fill="#1D54A0"/>
</g>
<mask id="mask1_1_899" style="mask-type:luminance" maskUnits="userSpaceOnUse" x="14" y="3" width="45" height="47">
<path d="M33.8144 7.95188L29.1334 11.6679L32.6254 16.2009L23.4104 24.0039L27.0514 28.6869L26.9124 28.8259L23.2984 24.2279L18.6354 27.8499L22.2574 32.3659L14.0654 39.0359C14.0654 39.0359 15.9414 44.1089 19.5084 47.0629C19.5084 47.0629 23.8004 51.3549 33.4984 47.9539C33.4984 47.9539 31.5484 46.2249 31.8824 42.6019V31.9019C31.8824 31.9019 31.8384 26.4399 37.9644 27.1089V43.7519C37.9644 43.7519 38.1514 45.7279 40.5024 44.9759C40.5024 44.9759 55.9244 35.6659 57.9934 26.1679C57.9934 26.1679 59.9684 21.4669 51.3174 15.1669C51.3174 15.1669 40.6524 7.06087 29.8754 3.56787L33.8144 7.95188Z" fill="white"/>
</mask>
<g mask="url(#mask1_1_899)">
<path d="M30.0425 3.49292C30.0425 3.49292 33.7685 8.08192 33.8145 7.95192C33.8605 7.82192 36.4245 5.72392 36.4245 5.72392L30.0425 3.49292Z" fill="#46499D"/>
</g>
<mask id="mask2_1_899" style="mask-type:luminance" maskUnits="userSpaceOnUse" x="14" y="3" width="45" height="47">
<path d="M33.8144 7.95188L29.1334 11.6679L32.6254 16.2009L23.4104 24.0039L27.0514 28.6869L26.9124 28.8259L23.2984 24.2279L18.6354 27.8499L22.2574 32.3659L14.0654 39.0359C14.0654 39.0359 15.9414 44.1089 19.5084 47.0629C19.5084 47.0629 23.8004 51.3549 33.4984 47.9539C33.4984 47.9539 31.5484 46.2249 31.8824 42.6019V31.9019C31.8824 31.9019 31.8384 26.4399 37.9644 27.1089V43.7519C37.9644 43.7519 38.1514 45.7279 40.5024 44.9759C40.5024 44.9759 55.9244 35.6659 57.9934 26.1679C57.9934 26.1679 59.9684 21.4669 51.3174 15.1669C51.3174 15.1669 40.6524 7.06087 29.8754 3.56787L33.8144 7.95188Z" fill="white"/>
</mask>
<g mask="url(#mask2_1_899)">
<path d="M37.5124 12.6711L42.1944 8.76906L36.7034 5.50806L33.8154 7.95206L37.5124 12.6711Z" fill="#214799"/>
</g>
<mask id="mask3_1_899" style="mask-type:luminance" maskUnits="userSpaceOnUse" x="14" y="3" width="45" height="47">
<path d="M33.8144 7.95188L29.1334 11.6679L32.6254 16.2009L23.4104 24.0039L27.0514 28.6869L26.9124 28.8259L23.2984 24.2279L18.6354 27.8499L22.2574 32.3659L14.0654 39.0359C14.0654 39.0359 15.9414 44.1089 19.5084 47.0629C19.5084 47.0629 23.8004 51.3549 33.4984 47.9539C33.4984 47.9539 31.5484 46.2249 31.8824 42.6019V31.9019C31.8824 31.9019 31.8384 26.4399 37.9644 27.1089V43.7519C37.9644 43.7519 38.1514 45.7279 40.5024 44.9759C40.5024 44.9759 55.9244 35.6659 57.9934 26.1679C57.9934 26.1679 59.9684 21.4669 51.3174 15.1669C51.3174 15.1669 40.6524 7.06087 29.8754 3.56787L33.8144 7.95188Z" fill="white"/>
</mask>
<g mask="url(#mask3_1_899)">
<path d="M14.0645 39.0348V40.1228L16.6935 44.6088L21.2925 40.9298L17.6785 36.0928L14.0645 39.0348Z" fill="#EAB020"/>
</g>
<mask id="mask4_1_899" style="mask-type:luminance" maskUnits="userSpaceOnUse" x="14" y="3" width="45" height="47">
<path d="M33.8144 7.95188L29.1334 11.6679L32.6254 16.2009L23.4104 24.0039L27.0514 28.6869L26.9124 28.8259L23.2984 24.2279L18.6354 27.8499L22.2574 32.3659L14.0654 39.0359C14.0654 39.0359 15.9414 44.1089 19.5084 47.0629C19.5084 47.0629 23.8004 51.3549 33.4984 47.9539C33.4984 47.9539 31.5484 46.2249 31.8824 42.6019V31.9019C31.8824 31.9019 31.8384 26.4399 37.9644 27.1089V43.7519C37.9644 43.7519 38.1514 45.7279 40.5024 44.9759C40.5024 44.9759 55.9244 35.6659 57.9934 26.1679C57.9934 26.1679 59.9684 21.4669 51.3174 15.1669C51.3174 15.1669 40.6524 7.06087 29.8754 3.56787L33.8144 7.95188Z" fill="white"/>
</mask>
<g mask="url(#mask4_1_899)">
<path d="M22.2582 32.365L26.0572 37.029L21.2922 40.93L17.6782 36.093L22.2582 32.365Z" fill="#DE8E26"/>
</g>
<mask id="mask5_1_899" style="mask-type:luminance" maskUnits="userSpaceOnUse" x="14" y="3" width="45" height="47">
<path d="M33.8144 7.95188L29.1334 11.6679L32.6254 16.2009L23.4104 24.0039L27.0514 28.6869L26.9124 28.8259L23.2984 24.2279L18.6354 27.8499L22.2574 32.3659L14.0654 39.0359C14.0654 39.0359 15.9414 44.1089 19.5084 47.0629C19.5084 47.0629 23.8004 51.3549 33.4984 47.9539C33.4984 47.9539 31.5484 46.2249 31.8824 42.6019V31.9019C31.8824 31.9019 31.8384 26.4399 37.9644 27.1089V43.7519C37.9644 43.7519 38.1514 45.7279 40.5024 44.9759C40.5024 44.9759 55.9244 35.6659 57.9934 26.1679C57.9934 26.1679 59.9684 21.4669 51.3174 15.1669C51.3174 15.1669 40.6524 7.06087 29.8754 3.56787L33.8144 7.95188Z" fill="white"/>
</mask>
<g mask="url(#mask5_1_899)">
<path d="M30.7393 33.3768L26.0573 37.0288L22.2583 32.3658L27.0513 28.6868L30.7393 33.3768Z" fill="#ED6323"/>
</g>
<mask id="mask6_1_899" style="mask-type:luminance" maskUnits="userSpaceOnUse" x="14" y="3" width="45" height="47">
<path d="M33.8144 7.95188L29.1334 11.6679L32.6254 16.2009L23.4104 24.0039L27.0514 28.6869L26.9124 28.8259L23.2984 24.2279L18.6354 27.8499L22.2574 32.3659L14.0654 39.0359C14.0654 39.0359 15.9414 44.1089 19.5084 47.0629C19.5084 47.0629 23.8004 51.3549 33.4984 47.9539C33.4984 47.9539 31.5484 46.2249 31.8824 42.6019V31.9019C31.8824 31.9019 31.8384 26.4399 37.9644 27.1089V43.7519C37.9644 43.7519 38.1514 45.7279 40.5024 44.9759C40.5024 44.9759 55.9244 35.6659 57.9934 26.1679C57.9934 26.1679 59.9684 21.4669 51.3174 15.1669C51.3174 15.1669 40.6524 7.06087 29.8754 3.56787L33.8144 7.95188Z" fill="white"/>
</mask>
<g mask="url(#mask6_1_899)">
<path d="M21.2924 40.9297C21.2924 40.9297 25.2774 45.4717 25.1934 45.4997C25.1104 45.5277 20.3164 49.4847 20.3164 49.4847L16.5264 44.6077L21.2924 40.9297Z" fill="#F6901F"/>
</g>
<mask id="mask7_1_899" style="mask-type:luminance" maskUnits="userSpaceOnUse" x="14" y="3" width="45" height="47">
<path d="M33.8144 7.95188L29.1334 11.6679L32.6254 16.2009L23.4104 24.0039L27.0514 28.6869L26.9124 28.8259L23.2984 24.2279L18.6354 27.8499L22.2574 32.3659L14.0654 39.0359C14.0654 39.0359 15.9414 44.1089 19.5084 47.0629C19.5084 47.0629 23.8004 51.3549 33.4984 47.9539C33.4984 47.9539 31.5484 46.2249 31.8824 42.6019V31.9019C31.8824 31.9019 31.8384 26.4399 37.9644 27.1089V43.7519C37.9644 43.7519 38.1514 45.7279 40.5024 44.9759C40.5024 44.9759 55.9244 35.6659 57.9934 26.1679C57.9934 26.1679 59.9684 21.4669 51.3174 15.1669C51.3174 15.1669 40.6524 7.06087 29.8754 3.56787L33.8144 7.95188Z" fill="white"/>
</mask>
<g mask="url(#mask7_1_899)">
<path d="M29.8755 41.8221L25.1935 45.501L21.2925 40.93L26.0575 37.0291L29.8755 41.8221Z" fill="#ED6323"/>
</g>
<mask id="mask8_1_899" style="mask-type:luminance" maskUnits="userSpaceOnUse" x="14" y="3" width="45" height="47">
<path d="M33.8144 7.95188L29.1334 11.6679L32.6254 16.2009L23.4104 24.0039L27.0514 28.6869L26.9124 28.8259L23.2984 24.2279L18.6354 27.8499L22.2574 32.3659L14.0654 39.0359C14.0654 39.0359 15.9414 44.1089 19.5084 47.0629C19.5084 47.0629 23.8004 51.3549 33.4984 47.9539C33.4984 47.9539 31.5484 46.2249 31.8824 42.6019V31.9019C31.8824 31.9019 31.8384 26.4399 37.9644 27.1089V43.7519C37.9644 43.7519 38.1514 45.7279 40.5024 44.9759C40.5024 44.9759 55.9244 35.6659 57.9934 26.1679C57.9934 26.1679 59.9684 21.4669 51.3174 15.1669C51.3174 15.1669 40.6524 7.06087 29.8754 3.56787L33.8144 7.95188Z" fill="white"/>
</mask>
<g mask="url(#mask8_1_899)">
<path d="M30.7396 33.377L34.5306 37.892L29.8756 41.822L26.0576 37.029L30.7396 33.377Z" fill="#ED4823"/>
</g>
<mask id="mask9_1_899" style="mask-type:luminance" maskUnits="userSpaceOnUse" x="14" y="3" width="45" height="47">
<path d="M33.8144 7.95188L29.1334 11.6679L32.6254 16.2009L23.4104 24.0039L27.0514 28.6869L26.9124 28.8259L23.2984 24.2279L18.6354 27.8499L22.2574 32.3659L14.0654 39.0359C14.0654 39.0359 15.9414 44.1089 19.5084 47.0629C19.5084 47.0629 23.8004 51.3549 33.4984 47.9539C33.4984 47.9539 31.5484 46.2249 31.8824 42.6019V31.9019C31.8824 31.9019 31.8384 26.4399 37.9644 27.1089V43.7519C37.9644 43.7519 38.1514 45.7279 40.5024 44.9759C40.5024 44.9759 55.9244 35.6659 57.9934 26.1679C57.9934 26.1679 59.9684 21.4669 51.3174 15.1669C51.3174 15.1669 40.6524 7.06087 29.8754 3.56787L33.8144 7.95188Z" fill="white"/>
</mask>
<g mask="url(#mask9_1_899)">
<path d="M25.1934 45.5008L28.5654 49.7088L33.8334 48.2878L32.1324 44.6088L29.8754 41.8218L25.1934 45.5008Z" fill="#ED4823"/>
</g>
<mask id="mask10_1_899" style="mask-type:luminance" maskUnits="userSpaceOnUse" x="14" y="3" width="45" height="47">
<path d="M33.8144 7.95188L29.1334 11.6679L32.6254 16.2009L23.4104 24.0039L27.0514 28.6869L26.9124 28.8259L23.2984 24.2279L18.6354 27.8499L22.2574 32.3659L14.0654 39.0359C14.0654 39.0359 15.9414 44.1089 19.5084 47.0629C19.5084 47.0629 23.8004 51.3549 33.4984 47.9539C33.4984 47.9539 31.5484 46.2249 31.8824 42.6019V31.9019C31.8824 31.9019 31.8384 26.4399 37.9644 27.1089V43.7519C37.9644 43.7519 38.1514 45.7279 40.5024 44.9759C40.5024 44.9759 55.9244 35.6659 57.9934 26.1679C57.9934 26.1679 59.9684 21.4669 51.3174 15.1669C51.3174 15.1669 40.6524 7.06087 29.8754 3.56787L33.8144 7.95188Z" fill="white"/>
</mask>
<g mask="url(#mask10_1_899)">
<path d="M20.3164 49.486L25.1934 45.501L28.5654 49.709L24.4414 51.714L20.3164 49.486Z" fill="#F26B24"/>
</g>
<mask id="mask11_1_899" style="mask-type:luminance" maskUnits="userSpaceOnUse" x="14" y="3" width="45" height="47">
<path d="M33.8144 7.95188L29.1334 11.6679L32.6254 16.2009L23.4104 24.0039L27.0514 28.6869L26.9124 28.8259L23.2984 24.2279L18.6354 27.8499L22.2574 32.3659L14.0654 39.0359C14.0654 39.0359 15.9414 44.1089 19.5084 47.0629C19.5084 47.0629 23.8004 51.3549 33.4984 47.9539C33.4984 47.9539 31.5484 46.2249 31.8824 42.6019V31.9019C31.8824 31.9019 31.8384 26.4399 37.9644 27.1089V43.7519C37.9644 43.7519 38.1514 45.7279 40.5024 44.9759C40.5024 44.9759 55.9244 35.6659 57.9934 26.1679C57.9934 26.1679 59.9684 21.4669 51.3174 15.1669C51.3174 15.1669 40.6524 7.06087 29.8754 3.56787L33.8144 7.95188Z" fill="white"/>
</mask>
<g mask="url(#mask11_1_899)">
<path d="M29.8755 41.8218L32.1366 39.9138L32.7735 43.4658L31.9525 44.3858L29.8755 41.8218Z" fill="#ED6323"/>
</g>
<mask id="mask12_1_899" style="mask-type:luminance" maskUnits="userSpaceOnUse" x="14" y="3" width="45" height="47">
<path d="M33.8144 7.95188L29.1334 11.6679L32.6254 16.2009L23.4104 24.0039L27.0514 28.6869L26.9124 28.8259L23.2984 24.2279L18.6354 27.8499L22.2574 32.3659L14.0654 39.0359C14.0654 39.0359 15.9414 44.1089 19.5084 47.0629C19.5084 47.0629 23.8004 51.3549 33.4984 47.9539C33.4984 47.9539 31.5484 46.2249 31.8824 42.6019V31.9019C31.8824 31.9019 31.8384 26.4399 37.9644 27.1089V43.7519C37.9644 43.7519 38.1514 45.7279 40.5024 44.9759C40.5024 44.9759 55.9244 35.6659 57.9934 26.1679C57.9934 26.1679 59.9684 21.4669 51.3174 15.1669C51.3174 15.1669 40.6524 7.06087 29.8754 3.56787L33.8144 7.95188Z" fill="white"/>
</mask>
<g mask="url(#mask12_1_899)">
<path d="M30.7393 33.3769L32.4673 35.4349V31.8728L30.7393 33.3769Z" fill="#ED6323"/>
</g>
<mask id="mask13_1_899" style="mask-type:luminance" maskUnits="userSpaceOnUse" x="14" y="3" width="45" height="47">
<path d="M33.8144 7.95188L29.1334 11.6679L32.6254 16.2009L23.4104 24.0039L27.0514 28.6869L26.9124 28.8259L23.2984 24.2279L18.6354 27.8499L22.2574 32.3659L14.0654 39.0359C14.0654 39.0359 15.9414 44.1089 19.5084 47.0629C19.5084 47.0629 23.8004 51.3549 33.4984 47.9539C33.4984 47.9539 31.5484 46.2249 31.8824 42.6019V31.9019C31.8824 31.9019 31.8384 26.4399 37.9644 27.1089V43.7519C37.9644 43.7519 38.1514 45.7279 40.5024 44.9759C40.5024 44.9759 55.9244 35.6659 57.9934 26.1679C57.9934 26.1679 59.9684 21.4669 51.3174 15.1669C51.3174 15.1669 40.6524 7.06087 29.8754 3.56787L33.8144 7.95188Z" fill="white"/>
</mask>
<g mask="url(#mask13_1_899)">
<path d="M27.9106 20.1929L31.6036 24.9339L27.0516 28.6869L23.4106 24.0039L27.9106 20.1929Z" fill="#7D8837"/>
</g>
<mask id="mask14_1_899" style="mask-type:luminance" maskUnits="userSpaceOnUse" x="14" y="3" width="45" height="47">
<path d="M33.8144 7.95188L29.1334 11.6679L32.6254 16.2009L23.4104 24.0039L27.0514 28.6869L26.9124 28.8259L23.2984 24.2279L18.6354 27.8499L22.2574 32.3659L14.0654 39.0359C14.0654 39.0359 15.9414 44.1089 19.5084 47.0629C19.5084 47.0629 23.8004 51.3549 33.4984 47.9539C33.4984 47.9539 31.5484 46.2249 31.8824 42.6019V31.9019C31.8824 31.9019 31.8384 26.4399 37.9644 27.1089V43.7519C37.9644 43.7519 38.1514 45.7279 40.5024 44.9759C40.5024 44.9759 55.9244 35.6659 57.9934 26.1679C57.9934 26.1679 59.9684 21.4669 51.3174 15.1669C51.3174 15.1669 40.6524 7.06087 29.8754 3.56787L33.8144 7.95188Z" fill="white"/>
</mask>
<g mask="url(#mask14_1_899)">
<path d="M30.7393 33.3768L35.3073 29.4918L31.6033 24.9338L27.0513 28.6868L30.7393 33.3768Z" fill="#A22475"/>
</g>
<mask id="mask15_1_899" style="mask-type:luminance" maskUnits="userSpaceOnUse" x="14" y="3" width="45" height="47">
<path d="M33.8144 7.95188L29.1334 11.6679L32.6254 16.2009L23.4104 24.0039L27.0514 28.6869L26.9124 28.8259L23.2984 24.2279L18.6354 27.8499L22.2574 32.3659L14.0654 39.0359C14.0654 39.0359 15.9414 44.1089 19.5084 47.0629C19.5084 47.0629 23.8004 51.3549 33.4984 47.9539C33.4984 47.9539 31.5484 46.2249 31.8824 42.6019V31.9019C31.8824 31.9019 31.8384 26.4399 37.9644 27.1089V43.7519C37.9644 43.7519 38.1514 45.7279 40.5024 44.9759C40.5024 44.9759 55.9244 35.6659 57.9934 26.1679C57.9934 26.1679 59.9684 21.4669 51.3174 15.1669C51.3174 15.1669 40.6524 7.06087 29.8754 3.56787L33.8144 7.95188Z" fill="white"/>
</mask>
<g mask="url(#mask15_1_899)">
<path d="M36.4726 21.075L31.6036 24.933L27.9106 20.193L32.4406 16.469L36.4726 21.075Z" fill="#1D6736"/>
</g>
<mask id="mask16_1_899" style="mask-type:luminance" maskUnits="userSpaceOnUse" x="14" y="3" width="45" height="47">
<path d="M33.8144 7.95188L29.1334 11.6679L32.6254 16.2009L23.4104 24.0039L27.0514 28.6869L26.9124 28.8259L23.2984 24.2279L18.6354 27.8499L22.2574 32.3659L14.0654 39.0359C14.0654 39.0359 15.9414 44.1089 19.5084 47.0629C19.5084 47.0629 23.8004 51.3549 33.4984 47.9539C33.4984 47.9539 31.5484 46.2249 31.8824 42.6019V31.9019C31.8824 31.9019 31.8384 26.4399 37.9644 27.1089V43.7519C37.9644 43.7519 38.1514 45.7279 40.5024 44.9759C40.5024 44.9759 55.9244 35.6659 57.9934 26.1679C57.9934 26.1679 59.9684 21.4669 51.3174 15.1669C51.3174 15.1669 40.6524 7.06087 29.8754 3.56787L33.8144 7.95188Z" fill="white"/>
</mask>
<g mask="url(#mask16_1_899)">
<path d="M37.5124 12.6709L41.2194 17.2969L36.4714 21.0749L32.4404 16.4689L37.5124 12.6709Z" fill="#154D80"/>
</g>
<mask id="mask17_1_899" style="mask-type:luminance" maskUnits="userSpaceOnUse" x="14" y="3" width="45" height="47">
<path d="M33.8144 7.95188L29.1334 11.6679L32.6254 16.2009L23.4104 24.0039L27.0514 28.6869L26.9124 28.8259L23.2984 24.2279L18.6354 27.8499L22.2574 32.3659L14.0654 39.0359C14.0654 39.0359 15.9414 44.1089 19.5084 47.0629C19.5084 47.0629 23.8004 51.3549 33.4984 47.9539C33.4984 47.9539 31.5484 46.2249 31.8824 42.6019V31.9019C31.8824 31.9019 31.8384 26.4399 37.9644 27.1089V43.7519C37.9644 43.7519 38.1514 45.7279 40.5024 44.9759C40.5024 44.9759 55.9244 35.6659 57.9934 26.1679C57.9934 26.1679 59.9684 21.4669 51.3174 15.1669C51.3174 15.1669 40.6524 7.06087 29.8754 3.56787L33.8144 7.95188Z" fill="white"/>
</mask>
<g mask="url(#mask17_1_899)">
<path d="M45.7612 13.7299L41.2192 17.2969L37.5122 12.6709L42.0202 8.91284L45.7612 13.7299Z" fill="#344097"/>
</g>
<mask id="mask18_1_899" style="mask-type:luminance" maskUnits="userSpaceOnUse" x="14" y="3" width="45" height="47">
<path d="M33.8144 7.95188L29.1334 11.6679L32.6254 16.2009L23.4104 24.0039L27.0514 28.6869L26.9124 28.8259L23.2984 24.2279L18.6354 27.8499L22.2574 32.3659L14.0654 39.0359C14.0654 39.0359 15.9414 44.1089 19.5084 47.0629C19.5084 47.0629 23.8004 51.3549 33.4984 47.9539C33.4984 47.9539 31.5484 46.2249 31.8824 42.6019V31.9019C31.8824 31.9019 31.8384 26.4399 37.9644 27.1089V43.7519C37.9644 43.7519 38.1514 45.7279 40.5024 44.9759C40.5024 44.9759 55.9244 35.6659 57.9934 26.1679C57.9934 26.1679 59.9684 21.4669 51.3174 15.1669C51.3174 15.1669 40.6524 7.06087 29.8754 3.56787L33.8144 7.95188Z" fill="white"/>
</mask>
<g mask="url(#mask18_1_899)">
<path d="M44.9253 22.063L49.6623 18.397L45.7613 13.73L41.2183 17.296L44.9253 22.063Z" fill="#512E8E"/>
</g>
<mask id="mask19_1_899" style="mask-type:luminance" maskUnits="userSpaceOnUse" x="14" y="3" width="45" height="47">
<path d="M33.8144 7.95188L29.1334 11.6679L32.6254 16.2009L23.4104 24.0039L27.0514 28.6869L26.9124 28.8259L23.2984 24.2279L18.6354 27.8499L22.2574 32.3659L14.0654 39.0359C14.0654 39.0359 15.9414 44.1089 19.5084 47.0629C19.5084 47.0629 23.8004 51.3549 33.4984 47.9539C33.4984 47.9539 31.5484 46.2249 31.8824 42.6019V31.9019C31.8824 31.9019 31.8384 26.4399 37.9644 27.1089V43.7519C37.9644 43.7519 38.1514 45.7279 40.5024 44.9759C40.5024 44.9759 55.9244 35.6659 57.9934 26.1679C57.9934 26.1679 59.9684 21.4669 51.3174 15.1669C51.3174 15.1669 40.6524 7.06087 29.8754 3.56787L33.8144 7.95188Z" fill="white"/>
</mask>
<g mask="url(#mask19_1_899)">
<path d="M52.9233 15.82L49.6623 18.398L45.7603 13.73L48.1023 11.668L52.9233 15.82Z" fill="#30348D"/>
</g>
<mask id="mask20_1_899" style="mask-type:luminance" maskUnits="userSpaceOnUse" x="14" y="3" width="45" height="47">
<path d="M33.8144 7.95188L29.1334 11.6679L32.6254 16.2009L23.4104 24.0039L27.0514 28.6869L26.9124 28.8259L23.2984 24.2279L18.6354 27.8499L22.2574 32.3659L14.0654 39.0359C14.0654 39.0359 15.9414 44.1089 19.5084 47.0629C19.5084 47.0629 23.8004 51.3549 33.4984 47.9539C33.4984 47.9539 31.5484 46.2249 31.8824 42.6019V31.9019C31.8824 31.9019 31.8384 26.4399 37.9644 27.1089V43.7519C37.9644 43.7519 38.1514 45.7279 40.5024 44.9759C40.5024 44.9759 55.9244 35.6659 57.9934 26.1679C57.9934 26.1679 59.9684 21.4669 51.3174 15.1669C51.3174 15.1669 40.6524 7.06087 29.8754 3.56787L33.8144 7.95188Z" fill="white"/>
</mask>
<g mask="url(#mask20_1_899)">
<path d="M44.9257 22.0629L40.1587 25.7129L36.4717 21.0759L41.2187 17.2959L44.9257 22.0629Z" fill="#762A80"/>
</g>
<mask id="mask21_1_899" style="mask-type:luminance" maskUnits="userSpaceOnUse" x="14" y="3" width="45" height="47">
<path d="M33.8144 7.95188L29.1334 11.6679L32.6254 16.2009L23.4104 24.0039L27.0514 28.6869L26.9124 28.8259L23.2984 24.2279L18.6354 27.8499L22.2574 32.3659L14.0654 39.0359C14.0654 39.0359 15.9414 44.1089 19.5084 47.0629C19.5084 47.0629 23.8004 51.3549 33.4984 47.9539C33.4984 47.9539 31.5484 46.2249 31.8824 42.6019V31.9019C31.8824 31.9019 31.8384 26.4399 37.9644 27.1089V43.7519C37.9644 43.7519 38.1514 45.7279 40.5024 44.9759C40.5024 44.9759 55.9244 35.6659 57.9934 26.1679C57.9934 26.1679 59.9684 21.4669 51.3174 15.1669C51.3174 15.1669 40.6524 7.06087 29.8754 3.56787L33.8144 7.95188Z" fill="white"/>
</mask>
<g mask="url(#mask21_1_899)">
<path d="M31.6035 24.933L35.3085 29.492L40.1595 25.7129L36.4725 21.075L31.6035 24.933Z" fill="#852880"/>
</g>
<mask id="mask22_1_899" style="mask-type:luminance" maskUnits="userSpaceOnUse" x="14" y="3" width="45" height="47">
<path d="M33.8144 7.95188L29.1334 11.6679L32.6254 16.2009L23.4104 24.0039L27.0514 28.6869L26.9124 28.8259L23.2984 24.2279L18.6354 27.8499L22.2574 32.3659L14.0654 39.0359C14.0654 39.0359 15.9414 44.1089 19.5084 47.0629C19.5084 47.0629 23.8004 51.3549 33.4984 47.9539C33.4984 47.9539 31.5484 46.2249 31.8824 42.6019V31.9019C31.8824 31.9019 31.8384 26.4399 37.9644 27.1089V43.7519C37.9644 43.7519 38.1514 45.7279 40.5024 44.9759C40.5024 44.9759 55.9244 35.6659 57.9934 26.1679C57.9934 26.1679 59.9684 21.4669 51.3174 15.1669C51.3174 15.1669 40.6524 7.06087 29.8754 3.56787L33.8144 7.95188Z" fill="white"/>
</mask>
<g mask="url(#mask22_1_899)">
<path d="M44.9252 22.063L48.4652 26.717L44.0052 30.507L40.1582 25.713L44.9252 22.063Z" fill="#862881"/>
</g>
<mask id="mask23_1_899" style="mask-type:luminance" maskUnits="userSpaceOnUse" x="14" y="3" width="45" height="47">
<path d="M33.8144 7.95188L29.1334 11.6679L32.6254 16.2009L23.4104 24.0039L27.0514 28.6869L26.9124 28.8259L23.2984 24.2279L18.6354 27.8499L22.2574 32.3659L14.0654 39.0359C14.0654 39.0359 15.9414 44.1089 19.5084 47.0629C19.5084 47.0629 23.8004 51.3549 33.4984 47.9539C33.4984 47.9539 31.5484 46.2249 31.8824 42.6019V31.9019C31.8824 31.9019 31.8384 26.4399 37.9644 27.1089V43.7519C37.9644 43.7519 38.1514 45.7279 40.5024 44.9759C40.5024 44.9759 55.9244 35.6659 57.9934 26.1679C57.9934 26.1679 59.9684 21.4669 51.3174 15.1669C51.3174 15.1669 40.6524 7.06087 29.8754 3.56787L33.8144 7.95188Z" fill="white"/>
</mask>
<g mask="url(#mask23_1_899)">
<path d="M49.6624 18.3977L53.2264 22.9368L48.4654 26.7167L44.9254 22.0628L49.6624 18.3977Z" fill="#762A80"/>
</g>
<mask id="mask24_1_899" style="mask-type:luminance" maskUnits="userSpaceOnUse" x="14" y="3" width="45" height="47">
<path d="M33.8144 7.95188L29.1334 11.6679L32.6254 16.2009L23.4104 24.0039L27.0514 28.6869L26.9124 28.8259L23.2984 24.2279L18.6354 27.8499L22.2574 32.3659L14.0654 39.0359C14.0654 39.0359 15.9414 44.1089 19.5084 47.0629C19.5084 47.0629 23.8004 51.3549 33.4984 47.9539C33.4984 47.9539 31.5484 46.2249 31.8824 42.6019V31.9019C31.8824 31.9019 31.8384 26.4399 37.9644 27.1089V43.7519C37.9644 43.7519 38.1514 45.7279 40.5024 44.9759C40.5024 44.9759 55.9244 35.6659 57.9934 26.1679C57.9934 26.1679 59.9684 21.4669 51.3174 15.1669C51.3174 15.1669 40.6524 7.06087 29.8754 3.56787L33.8144 7.95188Z" fill="white"/>
</mask>
<g mask="url(#mask24_1_899)">
<path d="M48.4644 26.7168L54.4284 34.1298L58.3014 28.4448L53.2274 22.9368L48.4644 26.7168Z" fill="#A12378"/>
</g>
<mask id="mask25_1_899" style="mask-type:luminance" maskUnits="userSpaceOnUse" x="14" y="3" width="45" height="47">
<path d="M33.8144 7.95188L29.1334 11.6679L32.6254 16.2009L23.4104 24.0039L27.0514 28.6869L26.9124 28.8259L23.2984 24.2279L18.6354 27.8499L22.2574 32.3659L14.0654 39.0359C14.0654 39.0359 15.9414 44.1089 19.5084 47.0629C19.5084 47.0629 23.8004 51.3549 33.4984 47.9539C33.4984 47.9539 31.5484 46.2249 31.8824 42.6019V31.9019C31.8824 31.9019 31.8384 26.4399 37.9644 27.1089V43.7519C37.9644 43.7519 38.1514 45.7279 40.5024 44.9759C40.5024 44.9759 55.9244 35.6659 57.9934 26.1679C57.9934 26.1679 59.9684 21.4669 51.3174 15.1669C51.3174 15.1669 40.6524 7.06087 29.8754 3.56787L33.8144 7.95188Z" fill="white"/>
</mask>
<g mask="url(#mask25_1_899)">
<path d="M57.0757 20.0008L53.2267 22.9369L49.6627 18.3978L52.9247 15.8198L57.0757 20.0008Z" fill="#762A7F"/>
</g>
<mask id="mask26_1_899" style="mask-type:luminance" maskUnits="userSpaceOnUse" x="14" y="3" width="45" height="47">
<path d="M33.8144 7.95188L29.1334 11.6679L32.6254 16.2009L23.4104 24.0039L27.0514 28.6869L26.9124 28.8259L23.2984 24.2279L18.6354 27.8499L22.2574 32.3659L14.0654 39.0359C14.0654 39.0359 15.9414 44.1089 19.5084 47.0629C19.5084 47.0629 23.8004 51.3549 33.4984 47.9539C33.4984 47.9539 31.5484 46.2249 31.8824 42.6019V31.9019C31.8824 31.9019 31.8384 26.4399 37.9644 27.1089V43.7519C37.9644 43.7519 38.1514 45.7279 40.5024 44.9759C40.5024 44.9759 55.9244 35.6659 57.9934 26.1679C57.9934 26.1679 59.9684 21.4669 51.3174 15.1669C51.3174 15.1669 40.6524 7.06087 29.8754 3.56787L33.8144 7.95188Z" fill="white"/>
</mask>
<g mask="url(#mask26_1_899)">
<path d="M57.0756 20.001L61.1776 24.102L58.3026 28.445L53.2266 22.937L57.0756 20.001Z" fill="#862881"/>
</g>
<mask id="mask27_1_899" style="mask-type:luminance" maskUnits="userSpaceOnUse" x="14" y="3" width="45" height="47">
<path d="M33.8144 7.95188L29.1334 11.6679L32.6254 16.2009L23.4104 24.0039L27.0514 28.6869L26.9124 28.8259L23.2984 24.2279L18.6354 27.8499L22.2574 32.3659L14.0654 39.0359C14.0654 39.0359 15.9414 44.1089 19.5084 47.0629C19.5084 47.0629 23.8004 51.3549 33.4984 47.9539C33.4984 47.9539 31.5484 46.2249 31.8824 42.6019V31.9019C31.8824 31.9019 31.8384 26.4399 37.9644 27.1089V43.7519C37.9644 43.7519 38.1514 45.7279 40.5024 44.9759C40.5024 44.9759 55.9244 35.6659 57.9934 26.1679C57.9934 26.1679 59.9684 21.4669 51.3174 15.1669C51.3174 15.1669 40.6524 7.06087 29.8754 3.56787L33.8144 7.95188Z" fill="white"/>
</mask>
<g mask="url(#mask27_1_899)">
<path d="M44.0057 30.5069L39.1007 34.1299L35.3087 29.4909L40.1587 25.7139L44.0057 30.5069Z" fill="#A22475"/>
</g>
<mask id="mask28_1_899" style="mask-type:luminance" maskUnits="userSpaceOnUse" x="14" y="3" width="45" height="47">
<path d="M33.8144 7.95188L29.1334 11.6679L32.6254 16.2009L23.4104 24.0039L27.0514 28.6869L26.9124 28.8259L23.2984 24.2279L18.6354 27.8499L22.2574 32.3659L14.0654 39.0359C14.0654 39.0359 15.9414 44.1089 19.5084 47.0629C19.5084 47.0629 23.8004 51.3549 33.4984 47.9539C33.4984 47.9539 31.5484 46.2249 31.8824 42.6019V31.9019C31.8824 31.9019 31.8384 26.4399 37.9644 27.1089V43.7519C37.9644 43.7519 38.1514 45.7279 40.5024 44.9759C40.5024 44.9759 55.9244 35.6659 57.9934 26.1679C57.9934 26.1679 59.9684 21.4669 51.3174 15.1669C51.3174 15.1669 40.6524 7.06087 29.8754 3.56787L33.8144 7.95188Z" fill="white"/>
</mask>
<g mask="url(#mask28_1_899)">
<path d="M43.0576 38.9229L47.5606 34.9079L44.0046 30.5059L39.0996 34.1299L43.0576 38.9229Z" fill="#B1206C"/>
</g>
<mask id="mask29_1_899" style="mask-type:luminance" maskUnits="userSpaceOnUse" x="14" y="3" width="45" height="47">
<path d="M33.8144 7.95188L29.1334 11.6679L32.6254 16.2009L23.4104 24.0039L27.0514 28.6869L26.9124 28.8259L23.2984 24.2279L18.6354 27.8499L22.2574 32.3659L14.0654 39.0359C14.0654 39.0359 15.9414 44.1089 19.5084 47.0629C19.5084 47.0629 23.8004 51.3549 33.4984 47.9539C33.4984 47.9539 31.5484 46.2249 31.8824 42.6019V31.9019C31.8824 31.9019 31.8384 26.4399 37.9644 27.1089V43.7519C37.9644 43.7519 38.1514 45.7279 40.5024 44.9759C40.5024 44.9759 55.9244 35.6659 57.9934 26.1679C57.9934 26.1679 59.9684 21.4669 51.3174 15.1669C51.3174 15.1669 40.6524 7.06087 29.8754 3.56787L33.8144 7.95188Z" fill="white"/>
</mask>
<g mask="url(#mask29_1_899)">
<path d="M37.2886 43.6329L43.0576 38.9229L45.8456 42.1499L42.2496 45.7649L37.8466 46.0308L37.2886 43.6329Z" fill="#E21E47"/>
</g>
<mask id="mask30_1_899" style="mask-type:luminance" maskUnits="userSpaceOnUse" x="14" y="3" width="45" height="47">
<path d="M33.8144 7.95188L29.1334 11.6679L32.6254 16.2009L23.4104 24.0039L27.0514 28.6869L26.9124 28.8259L23.2984 24.2279L18.6354 27.8499L22.2574 32.3659L14.0654 39.0359C14.0654 39.0359 15.9414 44.1089 19.5084 47.0629C19.5084 47.0629 23.8004 51.3549 33.4984 47.9539C33.4984 47.9539 31.5484 46.2249 31.8824 42.6019V31.9019C31.8824 31.9019 31.8384 26.4399 37.9644 27.1089V43.7519C37.9644 43.7519 38.1514 45.7279 40.5024 44.9759C40.5024 44.9759 55.9244 35.6659 57.9934 26.1679C57.9934 26.1679 59.9684 21.4669 51.3174 15.1669C51.3174 15.1669 40.6524 7.06087 29.8754 3.56787L33.8144 7.95188Z" fill="white"/>
</mask>
<g mask="url(#mask30_1_899)">
<path d="M37.5846 32.2769L43.0576 38.9229L37.2886 43.6329L37.5846 32.2769Z" fill="#D61D4D"/>
</g>
<mask id="mask31_1_899" style="mask-type:luminance" maskUnits="userSpaceOnUse" x="14" y="3" width="45" height="47">
<path d="M33.8144 7.95188L29.1334 11.6679L32.6254 16.2009L23.4104 24.0039L27.0514 28.6869L26.9124 28.8259L23.2984 24.2279L18.6354 27.8499L22.2574 32.3659L14.0654 39.0359C14.0654 39.0359 15.9414 44.1089 19.5084 47.0629C19.5084 47.0629 23.8004 51.3549 33.4984 47.9539C33.4984 47.9539 31.5484 46.2249 31.8824 42.6019V31.9019C31.8824 31.9019 31.8384 26.4399 37.9644 27.1089V43.7519C37.9644 43.7519 38.1514 45.7279 40.5024 44.9759C40.5024 44.9759 55.9244 35.6659 57.9934 26.1679C57.9934 26.1679 59.9684 21.4669 51.3174 15.1669C51.3174 15.1669 40.6524 7.06087 29.8754 3.56787L33.8144 7.95188Z" fill="white"/>
</mask>
<g mask="url(#mask31_1_899)">
<path d="M47.4337 34.908L50.3877 38.701L45.8447 42.15L43.0587 38.923L47.4337 34.908Z" fill="#C21E69"/>
</g>
<mask id="mask32_1_899" style="mask-type:luminance" maskUnits="userSpaceOnUse" x="14" y="3" width="45" height="47">
<path d="M33.8144 7.95188L29.1334 11.6679L32.6254 16.2009L23.4104 24.0039L27.0514 28.6869L26.9124 28.8259L23.2984 24.2279L18.6354 27.8499L22.2574 32.3659L14.0654 39.0359C14.0654 39.0359 15.9414 44.1089 19.5084 47.0629C19.5084 47.0629 23.8004 51.3549 33.4984 47.9539C33.4984 47.9539 31.5484 46.2249 31.8824 42.6019V31.9019C31.8824 31.9019 31.8384 26.4399 37.9644 27.1089V43.7519C37.9644 43.7519 38.1514 45.7279 40.5024 44.9759C40.5024 44.9759 55.9244 35.6659 57.9934 26.1679C57.9934 26.1679 59.9684 21.4669 51.3174 15.1669C51.3174 15.1669 40.6524 7.06087 29.8754 3.56787L33.8144 7.95188Z" fill="white"/>
</mask>
<g mask="url(#mask32_1_899)">
<path d="M44.0054 30.5068L48.4644 26.7168L54.4284 34.1298L50.3874 38.7008L44.0054 30.5068Z" fill="#C21E69"/>
</g>
<mask id="mask33_1_899" style="mask-type:luminance" maskUnits="userSpaceOnUse" x="14" y="3" width="45" height="47">
<path d="M33.8144 7.95188L29.1334 11.6679L32.6254 16.2009L23.4104 24.0039L27.0514 28.6869L26.9124 28.8259L23.2984 24.2279L18.6354 27.8499L22.2574 32.3659L14.0654 39.0359C14.0654 39.0359 15.9414 44.1089 19.5084 47.0629C19.5084 47.0629 23.8004 51.3549 33.4984 47.9539C33.4984 47.9539 31.5484 46.2249 31.8824 42.6019V31.9019C31.8824 31.9019 31.8384 26.4399 37.9644 27.1089V43.7519C37.9644 43.7519 38.1514 45.7279 40.5024 44.9759C40.5024 44.9759 55.9244 35.6659 57.9934 26.1679C57.9934 26.1679 59.9684 21.4669 51.3174 15.1669C51.3174 15.1669 40.6524 7.06087 29.8754 3.56787L33.8144 7.95188Z" fill="white"/>
</mask>
<g mask="url(#mask33_1_899)">
<path d="M42.0215 8.91304L45.7615 13.73L48.1025 11.668L42.1945 8.76904L42.0215 8.91304Z" fill="#2F348C"/>
</g>
<mask id="mask34_1_899" style="mask-type:luminance" maskUnits="userSpaceOnUse" x="14" y="3" width="45" height="47">
<path d="M33.8144 7.95188L29.1334 11.6679L32.6254 16.2009L23.4104 24.0039L27.0514 28.6869L26.9124 28.8259L23.2984 24.2279L18.6354 27.8499L22.2574 32.3659L14.0654 39.0359C14.0654 39.0359 15.9414 44.1089 19.5084 47.0629C19.5084 47.0629 23.8004 51.3549 33.4984 47.9539C33.4984 47.9539 31.5484 46.2249 31.8824 42.6019V31.9019C31.8824 31.9019 31.8384 26.4399 37.9644 27.1089V43.7519C37.9644 43.7519 38.1514 45.7279 40.5024 44.9759C40.5024 44.9759 55.9244 35.6659 57.9934 26.1679C57.9934 26.1679 59.9684 21.4669 51.3174 15.1669C51.3174 15.1669 40.6524 7.06087 29.8754 3.56787L33.8144 7.95188Z" fill="white"/>
</mask>
<g mask="url(#mask34_1_899)">
<path d="M23.2983 24.2271L26.9123 28.826L22.2573 32.3651L18.6343 27.85L23.2983 24.2271Z" fill="#99B43C"/>
</g>
<path d="M37.9122 18.574C37.7812 20.338 36.3032 21.689 34.6112 21.592C32.9202 21.494 31.6552 19.985 31.7862 18.221C31.9172 16.457 33.3952 15.106 35.0872 15.204C36.7782 15.301 38.0432 16.811 37.9122 18.574Z" fill="white"/>
<path d="M68.7 45.4186C68.7 44.5227 68.3556 43.7969 67.0494 43.1052L65.6244 42.3454C64.8525 41.9371 64.6506 41.7103 64.6506 41.3361C64.6506 40.8258 65.0187 40.5309 65.8975 40.5309C66.6694 40.5309 67.4531 40.5763 68.2369 40.6443C68.2487 40.6443 68.2487 40.6443 68.2606 40.6443C68.3794 40.6443 68.4625 40.5536 68.4625 40.4402V39.601C68.4625 39.4876 68.3675 39.4082 68.2487 39.3856C67.845 39.2948 66.7525 39.1814 65.9687 39.1814C63.76 39.1814 63 40.0887 63 41.3361C63 42.1299 63.2969 42.7876 64.4012 43.4113L65.9687 44.3072C66.7525 44.7495 66.9781 44.9763 66.9781 45.4186C66.9781 46.0763 66.6575 46.4392 65.6006 46.4392C65.1612 46.4392 63.9737 46.3825 63.4987 46.3258C63.4869 46.3258 63.4869 46.3258 63.475 46.3258C63.3562 46.3258 63.2494 46.4165 63.2494 46.5412V47.3577C63.2494 47.4825 63.3562 47.5619 63.475 47.5845C64.045 47.7093 64.6862 47.7887 65.5769 47.7887C67.9519 47.7887 68.7 46.5639 68.7 45.4186Z" fill="#231F20"/>
<path d="M75.4843 44.9649V44.0464C75.4843 42.4247 74.5106 41.2227 72.6462 41.2227C70.7818 41.2227 69.8081 42.4247 69.8081 44.0464V44.9649C69.8081 46.5866 70.7818 47.7887 72.6462 47.7887C74.5106 47.7887 75.4843 46.5866 75.4843 44.9649ZM73.9168 44.9649C73.9168 45.8948 73.4775 46.4959 72.6462 46.4959C71.815 46.4959 71.3756 45.8948 71.3756 44.9649V44.0464C71.3756 43.1165 71.815 42.5155 72.6462 42.5155C73.4775 42.5155 73.9168 43.1165 73.9168 44.0464V44.9649Z" fill="#231F20"/>
<path d="M78.4557 47.4599V39.2949C78.4557 39.1702 78.3607 39.0681 78.23 39.0681H77.1257C76.995 39.0681 76.8882 39.1702 76.8882 39.2949V47.4599C76.8882 47.5846 76.995 47.698 77.1257 47.698H78.23C78.3607 47.698 78.4557 47.5846 78.4557 47.4599Z" fill="#231F20"/>
<path d="M85.5505 47.471V41.5401C85.5505 41.4154 85.4436 41.302 85.313 41.302H84.2205C84.0899 41.302 83.983 41.4154 83.983 41.5401V46.0762C83.6505 46.2463 83.0805 46.5298 82.6411 46.5298C82.273 46.5298 82.0711 46.4618 81.9049 46.3257C81.6793 46.1329 81.6318 45.804 81.6318 45.237V41.5401C81.6318 41.4154 81.5249 41.302 81.3943 41.302H80.3018C80.1711 41.302 80.0643 41.4154 80.0643 41.5401V45.237C80.0643 46.1783 80.2186 46.8813 80.658 47.3009C81.0024 47.6298 81.5249 47.7772 82.1186 47.7772C82.8786 47.7772 83.3655 47.5958 83.983 47.2102V47.471C83.983 47.5958 84.0899 47.6978 84.2205 47.6978H85.313C85.4436 47.6978 85.5505 47.5958 85.5505 47.471Z" fill="#231F20"/>
<path d="M90.8325 47.5052V46.7907C90.8325 46.6773 90.7375 46.6206 90.5831 46.6206H89.9537C89.5262 46.6206 89.4906 46.5526 89.4906 45.9856V42.4247H90.5594C90.69 42.4247 90.7969 42.3227 90.7969 42.1979V41.5289C90.7969 41.4041 90.69 41.3021 90.5594 41.3021H89.4906V40.134C89.4906 40.0206 89.4075 39.9639 89.3006 39.9639C89.2887 39.9639 89.265 39.9639 89.2531 39.9639L88.1487 40.1454C88.0181 40.168 87.9112 40.2474 87.9112 40.3722V41.3021H86.795C86.6644 41.3021 86.5575 41.4041 86.5575 41.5289V42.0392C86.5575 42.1639 86.6644 42.2433 86.795 42.266L87.9112 42.4247V45.9856C87.9112 47.5052 88.4575 47.7887 89.7994 47.7887C90.0606 47.7887 90.3219 47.7546 90.6069 47.7093C90.7612 47.6866 90.8325 47.6186 90.8325 47.5052Z" fill="#231F20"/>
<path d="M93.5432 40.2247V39.2268C93.5432 39.1021 93.4363 39 93.3057 39H92.1538C92.0232 39 91.9045 39.1021 91.9045 39.2268V40.2247C91.9045 40.3495 92.0232 40.4515 92.1538 40.4515H93.3057C93.4363 40.4515 93.5432 40.3495 93.5432 40.2247ZM93.5076 47.4598V41.5289C93.5076 41.4041 93.4007 41.3021 93.2701 41.3021H92.1776C92.047 41.3021 91.9401 41.4041 91.9401 41.5289V47.4598C91.9401 47.5845 92.047 47.6979 92.1776 47.6979H93.2701C93.4007 47.6979 93.5076 47.5845 93.5076 47.4598Z" fill="#231F20"/>
<path d="M100.556 44.9649V44.0464C100.556 42.4247 99.5826 41.2227 97.7182 41.2227C95.8538 41.2227 94.8801 42.4247 94.8801 44.0464V44.9649C94.8801 46.5866 95.8538 47.7887 97.7182 47.7887C99.5826 47.7887 100.556 46.5866 100.556 44.9649ZM98.9888 44.9649C98.9888 45.8948 98.5495 46.4959 97.7182 46.4959C96.887 46.4959 96.4476 45.8948 96.4476 44.9649V44.0464C96.4476 43.1165 96.887 42.5155 97.7182 42.5155C98.5495 42.5155 98.9888 43.1165 98.9888 44.0464V44.9649Z" fill="#231F20"/>
<path d="M107.387 47.4598V43.7629C107.387 42.3227 107.043 41.2227 105.333 41.2227C104.549 41.2227 104.098 41.3474 103.409 41.767V41.5289C103.409 41.4041 103.302 41.3021 103.171 41.3021H102.138C102.008 41.3021 101.901 41.4041 101.901 41.5289V47.4598C101.901 47.5845 102.008 47.6979 102.138 47.6979H103.231C103.361 47.6979 103.468 47.5845 103.468 47.4598V42.901C103.967 42.6515 104.406 42.4928 104.81 42.4928C105.725 42.4928 105.82 42.7763 105.82 43.7629V47.4598C105.82 47.5845 105.926 47.6979 106.057 47.6979H107.15C107.28 47.6979 107.387 47.5845 107.387 47.4598Z" fill="#231F20"/>
<path d="M119.283 47.5732C119.283 47.5392 119.272 47.4938 119.236 47.4598L118.072 46.2804C118.547 45.6 118.785 44.7381 118.785 43.7742V43.6381C118.785 43.5134 118.702 43.4113 118.571 43.4113H117.704C117.573 43.4113 117.502 43.5134 117.502 43.6381V43.7742C117.502 44.3753 117.407 44.9309 117.193 45.3959L115.412 43.5814L115.697 43.4113C116.576 42.8897 117.455 42.232 117.455 41.1546V41.0526C117.455 39.9299 116.469 39.1814 114.902 39.1814C113.097 39.1814 112.194 39.9299 112.194 41.0526V41.1546C112.194 41.6536 112.313 42.1412 113.322 43.2526L113.405 43.3433C112.36 43.9557 111.778 44.5454 111.778 45.4979V45.6113C111.778 47.1649 113.215 47.7887 114.925 47.7887C115.828 47.7887 116.588 47.5619 117.182 47.1649L117.621 47.6072C117.704 47.6866 117.74 47.6979 117.823 47.6979H119.153C119.236 47.6979 119.283 47.6412 119.283 47.5732ZM116.042 41.1546C116.042 41.699 115.78 41.9711 114.89 42.4814L114.533 42.6856L114.427 42.5835C113.619 41.8124 113.595 41.5062 113.595 41.1546V41.0526C113.595 40.5309 114.106 40.2474 114.902 40.2474C115.65 40.2474 116.042 40.5423 116.042 41.0526V41.1546ZM116.362 46.3371C115.994 46.5526 115.519 46.6773 114.925 46.6773C114.058 46.6773 113.405 46.3371 113.405 45.6113V45.4979C113.405 44.9649 113.572 44.6361 114.284 44.2278L116.362 46.3371Z" fill="#231F20"/>
<path d="M129.196 40.3835V39.4876C129.196 39.3629 129.089 39.2722 128.959 39.2722H123.152C123.021 39.2722 122.914 39.3629 122.914 39.4876V40.3835C122.914 40.5082 123.021 40.5876 123.152 40.5876H125.23V47.4711C125.23 47.5959 125.337 47.6979 125.468 47.6979H126.643C126.774 47.6979 126.881 47.5959 126.881 47.4711V40.5876H128.959C129.089 40.5876 129.196 40.5082 129.196 40.3835Z" fill="#231F20"/>
<path d="M135.741 44.7381V44.1031C135.741 42.4134 134.743 41.2227 132.914 41.2227C131.098 41.2227 130.064 42.334 130.064 44.1031V44.9423C130.064 47.1763 131.751 47.7887 132.938 47.7887C134.007 47.7887 134.47 47.732 135.242 47.5959C135.456 47.5619 135.491 47.4825 135.491 47.301V46.5526C135.491 46.4392 135.396 46.3825 135.278 46.3825C135.266 46.3825 135.254 46.3825 135.242 46.3825C134.743 46.4278 133.924 46.4959 133.057 46.4959C131.917 46.4959 131.632 45.7134 131.632 45.0557V45.0216H135.503C135.669 45.0216 135.741 44.9196 135.741 44.7381ZM134.161 43.9557H131.644V43.9103C131.644 43.0144 132.178 42.5155 132.914 42.5155C133.651 42.5155 134.161 43.0258 134.161 43.9103V43.9557Z" fill="#231F20"/>
<path d="M141.336 47.3464V46.6093C141.336 46.4959 141.241 46.4392 141.123 46.4392C141.111 46.4392 141.099 46.4392 141.087 46.4392C140.612 46.4959 140.327 46.5186 139.555 46.5186C138.997 46.5186 138.415 46.2124 138.415 45.033V43.9784C138.415 42.799 138.997 42.4928 139.555 42.4928C140.327 42.4928 140.612 42.5155 141.087 42.5722C141.099 42.5722 141.111 42.5722 141.123 42.5722C141.241 42.5722 141.336 42.5155 141.336 42.4021V41.6649C141.336 41.4835 141.289 41.4155 141.087 41.3701C140.814 41.3021 140.279 41.2227 139.555 41.2227C138.011 41.2227 136.848 42.1299 136.848 43.9784V45.033C136.848 46.8814 138.011 47.7887 139.555 47.7887C140.279 47.7887 140.814 47.7093 141.087 47.6412C141.289 47.5959 141.336 47.5278 141.336 47.3464Z" fill="#231F20"/>
<path d="M148.126 47.4599V43.729C148.126 42.3341 147.639 41.2228 146.001 41.2228C145.157 41.2228 144.659 41.3815 144.207 41.6424V39.2949C144.207 39.1702 144.101 39.0681 143.97 39.0681H142.877C142.747 39.0681 142.64 39.1702 142.64 39.2949V47.4599C142.64 47.5846 142.747 47.698 142.877 47.698H143.97C144.101 47.698 144.207 47.5846 144.207 47.4599V42.8785C144.706 42.629 145.181 42.4929 145.585 42.4929C146.381 42.4929 146.559 42.7424 146.559 43.729V47.4599C146.559 47.5846 146.666 47.698 146.796 47.698H147.889C148.019 47.698 148.126 47.5846 148.126 47.4599Z" fill="#231F20"/>
<path d="M155.154 47.4598V43.7629C155.154 42.3227 154.809 41.2227 153.099 41.2227C152.316 41.2227 151.864 41.3474 151.176 41.767V41.5289C151.176 41.4041 151.069 41.3021 150.938 41.3021H149.905C149.774 41.3021 149.667 41.4041 149.667 41.5289V47.4598C149.667 47.5845 149.774 47.6979 149.905 47.6979H150.997C151.128 47.6979 151.235 47.5845 151.235 47.4598V42.901C151.734 42.6515 152.173 42.4928 152.577 42.4928C153.491 42.4928 153.586 42.7763 153.586 43.7629V47.4598C153.586 47.5845 153.693 47.6979 153.824 47.6979H154.916C155.047 47.6979 155.154 47.5845 155.154 47.4598Z" fill="#231F20"/>
<path d="M162.169 44.9649V44.0464C162.169 42.4247 161.196 41.2227 159.331 41.2227C157.467 41.2227 156.493 42.4247 156.493 44.0464V44.9649C156.493 46.5866 157.467 47.7887 159.331 47.7887C161.196 47.7887 162.169 46.5866 162.169 44.9649ZM160.602 44.9649C160.602 45.8948 160.163 46.4959 159.331 46.4959C158.5 46.4959 158.061 45.8948 158.061 44.9649V44.0464C158.061 43.1165 158.5 42.5155 159.331 42.5155C160.163 42.5155 160.602 43.1165 160.602 44.0464V44.9649Z" fill="#231F20"/>
<path d="M165.141 47.4599V39.2949C165.141 39.1702 165.046 39.0681 164.915 39.0681H163.811C163.68 39.0681 163.573 39.1702 163.573 39.2949V47.4599C163.573 47.5846 163.68 47.698 163.811 47.698H164.915C165.046 47.698 165.141 47.5846 165.141 47.4599Z" fill="#231F20"/>
<path d="M172.224 44.9649V44.0464C172.224 42.4247 171.25 41.2227 169.386 41.2227C167.521 41.2227 166.548 42.4247 166.548 44.0464V44.9649C166.548 46.5866 167.521 47.7887 169.386 47.7887C171.25 47.7887 172.224 46.5866 172.224 44.9649ZM170.656 44.9649C170.656 45.8948 170.217 46.4959 169.386 46.4959C168.554 46.4959 168.115 45.8948 168.115 44.9649V44.0464C168.115 43.1165 168.554 42.5155 169.386 42.5155C170.217 42.5155 170.656 43.1165 170.656 44.0464V44.9649Z" fill="#231F20"/>
<path d="M179.399 42.0844V41.6081C179.399 41.438 179.256 41.302 179.078 41.302H176.299C174.245 41.302 173.473 42.2545 173.473 43.3886V43.4679C173.473 44.035 173.604 44.4432 173.96 44.7947C173.639 45.0102 173.485 45.3618 173.485 45.7133V45.7246C173.485 46.1329 173.687 46.5298 174.019 46.7679C173.639 47.0968 173.414 47.5504 173.414 48.0154V48.1174C173.414 49.3081 174.435 49.9999 176.359 49.9999C178.378 49.9999 179.268 49.3762 179.268 48.2195V48.1401C179.268 46.9267 178.223 46.6886 176.608 46.3257L175.207 46.0081C174.934 45.9514 174.803 45.8607 174.803 45.6339C174.803 45.5319 174.863 45.4298 175.005 45.3391C175.243 45.4298 175.67 45.5319 176.299 45.5319C178.093 45.5319 179.114 44.8855 179.114 43.4679V43.3886C179.114 42.9917 179.007 42.7422 178.817 42.4813L179.209 42.3339C179.351 42.2772 179.399 42.2545 179.399 42.0844ZM177.57 43.502C177.57 44.069 177.285 44.3978 176.299 44.3978C175.195 44.3978 175.017 43.9215 175.017 43.502V43.4112C175.017 42.8783 175.29 42.4473 176.299 42.4473C177.321 42.4473 177.57 42.8669 177.57 43.4112V43.502ZM177.701 48.2195C177.701 48.6277 177.499 48.8659 176.359 48.8659C175.243 48.8659 174.946 48.5824 174.946 48.1174V48.0154C174.946 47.6071 175.064 47.4597 175.243 47.2215L176.299 47.4597C177.546 47.7432 177.701 47.8906 177.701 48.1401V48.2195Z" fill="#231F20"/>
<path d="M182.142 40.2247V39.2268C182.142 39.1021 182.035 39 181.904 39H180.752C180.622 39 180.503 39.1021 180.503 39.2268V40.2247C180.503 40.3495 180.622 40.4515 180.752 40.4515H181.904C182.035 40.4515 182.142 40.3495 182.142 40.2247ZM182.106 47.4598V41.5289C182.106 41.4041 181.999 41.3021 181.869 41.3021H180.776C180.646 41.3021 180.539 41.4041 180.539 41.5289V47.4598C180.539 47.5845 180.646 47.6979 180.776 47.6979H181.869C181.999 47.6979 182.106 47.5845 182.106 47.4598Z" fill="#231F20"/>
<path d="M189.155 44.7381V44.1031C189.155 42.4134 188.157 41.2227 186.329 41.2227C184.512 41.2227 183.479 42.334 183.479 44.1031V44.9423C183.479 47.1763 185.165 47.7887 186.352 47.7887C187.421 47.7887 187.884 47.732 188.656 47.5959C188.87 47.5619 188.906 47.4825 188.906 47.301V46.5526C188.906 46.4392 188.811 46.3825 188.692 46.3825C188.68 46.3825 188.668 46.3825 188.656 46.3825C188.157 46.4278 187.338 46.4959 186.471 46.4959C185.331 46.4959 185.046 45.7134 185.046 45.0557V45.0216H188.917C189.084 45.0216 189.155 44.9196 189.155 44.7381ZM187.576 43.9557H185.058V43.9103C185.058 43.0144 185.592 42.5155 186.329 42.5155C187.065 42.5155 187.576 43.0258 187.576 43.9103V43.9557Z" fill="#231F20"/>
<path d="M195 46.0196C195 45.4412 194.858 44.8742 193.86 44.2959L192.304 43.3887C192.008 43.2186 191.829 43.1052 191.829 42.9237C191.829 42.5722 192.079 42.4474 192.649 42.4474C193.326 42.4474 194.276 42.5381 194.608 42.5835C194.62 42.5835 194.632 42.5835 194.656 42.5835C194.774 42.5835 194.846 42.5041 194.846 42.368V41.7103C194.846 41.5742 194.774 41.4835 194.632 41.4495C194.026 41.3247 193.48 41.2227 192.518 41.2227C191.01 41.2227 190.262 41.7897 190.262 42.9237C190.262 43.5814 190.677 44.1485 191.259 44.4887L192.886 45.4412C193.266 45.668 193.409 45.8041 193.409 46.0196C193.409 46.3258 193.302 46.5639 192.566 46.5639C192.209 46.5639 191.141 46.5072 190.571 46.4392C190.559 46.4392 190.547 46.4392 190.523 46.4392C190.404 46.4392 190.321 46.5299 190.321 46.6206V47.301C190.321 47.4371 190.404 47.5278 190.547 47.5619C191.212 47.732 192.209 47.7887 192.673 47.7887C194.228 47.7887 195 47.0062 195 46.0196Z" fill="#231F20"/>
<mask id="mask35_1_899" style="mask-type:luminance" maskUnits="userSpaceOnUse" x="62" y="14" width="9" height="23">
<path d="M66.5503 14.1489C66.2313 14.1489 66.0013 14.384 65.9443 14.709L62.3623 35.475V35.6229C62.3623 35.8589 62.5063 36.0649 62.7673 36.0649H66.6363C66.9543 36.0649 67.2433 35.8 67.3013 35.474L70.8823 14.7079V14.59C70.8823 14.325 70.7093 14.1479 70.4203 14.1479H66.5503V14.1489Z" fill="white"/>
</mask>
<g mask="url(#mask35_1_899)">
<path d="M59.0503 14.6611L70.6823 12.8611L74.1943 35.5521L62.5613 37.3531L59.0503 14.6611Z" fill="url(#paint0_linear_1_899)"/>
</g>
<mask id="mask36_1_899" style="mask-type:luminance" maskUnits="userSpaceOnUse" x="71" y="18" width="17" height="19">
<path d="M77.9592 20.461L78.0751 19.753V19.665C78.0751 19.369 77.8721 19.163 77.5831 19.163H74.4352C74.1172 19.163 73.8281 19.429 73.7711 19.753L71.0562 35.446V35.534C71.0562 35.83 71.2581 36.065 71.5471 36.065H75.0421C75.3591 36.065 75.6772 35.77 75.7352 35.446L77.7271 23.823C78.3641 23.44 79.7502 22.879 80.8472 22.879C81.7132 22.879 82.4061 23.234 82.4061 24.325C82.4061 24.679 82.3491 25.121 82.2621 25.623L80.5871 35.446V35.564C80.5871 35.83 80.7601 36.065 81.0491 36.065H84.5441C84.8621 36.065 85.2082 35.77 85.2672 35.446L86.9402 25.623C87.0572 24.974 87.1142 24.384 87.1142 23.823C87.1142 20.343 84.9482 18.928 82.4642 18.928C80.9342 18.928 79.2582 19.459 77.9592 20.461Z" fill="white"/>
</mask>
<g mask="url(#mask36_1_899)">
<path d="M68.4663 19.329L86.7383 16.501L89.7033 35.664L71.4313 38.492L68.4663 19.329Z" fill="url(#paint1_linear_1_899)"/>
</g>
<mask id="mask37_1_899" style="mask-type:luminance" maskUnits="userSpaceOnUse" x="88" y="18" width="17" height="19">
<path d="M95.6364 20.461L95.7524 19.753V19.665C95.7524 19.369 95.5504 19.163 95.2614 19.163H92.1134C91.7954 19.163 91.5064 19.429 91.4494 19.753L88.7344 35.446V35.534C88.7344 35.83 88.9364 36.065 89.2254 36.065H92.7194C93.0374 36.065 93.3554 35.77 93.4124 35.446L95.4054 23.823C96.0404 23.44 97.4274 22.879 98.5244 22.879C99.3914 22.879 100.084 23.234 100.084 24.325C100.084 24.679 100.026 25.121 99.9404 25.623L98.2644 35.446V35.564C98.2644 35.83 98.4384 36.065 98.7274 36.065H102.222C102.539 36.065 102.886 35.77 102.943 35.446L104.619 25.623C104.734 24.974 104.793 24.384 104.793 23.823C104.793 20.343 102.627 18.928 100.143 18.928C98.6124 18.928 96.9364 19.459 95.6364 20.461Z" fill="white"/>
</mask>
<g mask="url(#mask37_1_899)">
<path d="M86.1445 19.329L104.418 16.501L107.383 35.664L89.1095 38.492L86.1445 19.329Z" fill="url(#paint2_linear_1_899)"/>
</g>
<mask id="mask38_1_899" style="mask-type:luminance" maskUnits="userSpaceOnUse" x="106" y="18" width="17" height="19">
<path d="M111.61 30.078C111.61 29.664 111.668 29.192 111.755 28.662L112.131 26.596C112.592 24.001 113.661 22.998 115.336 22.998C116.751 22.998 117.444 23.706 117.444 25.24C117.444 25.623 117.387 26.095 117.3 26.596L116.923 28.662C116.49 31.051 115.624 32.29 113.747 32.29C112.304 32.29 111.61 31.612 111.61 30.078ZM107.481 26.596L107.104 28.662C106.989 29.223 106.959 29.782 106.959 30.313C106.959 33.794 109.098 36.331 113.023 36.331C118.136 36.331 120.648 33.676 121.573 28.662L121.949 26.596C122.007 26.243 122.122 25.446 122.122 24.886C122.122 21.287 119.928 18.928 116.027 18.928C111.235 18.928 108.462 21.258 107.481 26.596Z" fill="white"/>
</mask>
<g mask="url(#mask38_1_899)">
<path d="M104.33 19.335L121.768 16.636L124.753 35.923L107.314 38.623L104.33 19.335Z" fill="url(#paint3_linear_1_899)"/>
</g>
<mask id="mask39_1_899" style="mask-type:luminance" maskUnits="userSpaceOnUse" x="125" y="19" width="16" height="18">
<path d="M136.364 19.1631C136.075 19.1631 135.786 19.4291 135.641 19.7831L131.165 31.3461C130.991 31.7881 130.816 31.9651 130.616 31.9651C130.413 31.9651 130.298 31.7881 130.267 31.3461L129.777 19.7831C129.749 19.4291 129.576 19.1631 129.286 19.1631H125.619C125.33 19.1631 125.07 19.4291 125.07 19.7831V19.8421L126.369 33.2331C126.63 35.8591 128.275 36.3311 129.98 36.3311C131.683 36.3311 133.56 35.8591 134.715 33.2331L140.666 19.8421C140.694 19.7531 140.722 19.6651 140.722 19.5761C140.722 19.3411 140.55 19.1631 140.318 19.1631H136.364Z" fill="white"/>
</mask>
<g mask="url(#mask39_1_899)">
<path d="M122.478 19.5641L140.359 16.7971L143.319 35.9291L125.439 38.6971L122.478 19.5641Z" fill="url(#paint4_linear_1_899)"/>
</g>
<mask id="mask40_1_899" style="mask-type:luminance" maskUnits="userSpaceOnUse" x="156" y="19" width="16" height="18">
<path d="M160.542 19.1631C160.226 19.1631 159.937 19.4291 159.877 19.7531L159.388 22.5261V22.6141C159.388 22.8511 159.532 22.9981 159.791 22.9981H165.365C165.481 22.9981 165.538 23.0271 165.538 23.1161C165.538 23.1751 165.51 23.2641 165.423 23.3521L157.885 32.0831C157.538 32.4961 157.366 32.6741 157.279 33.2041L156.962 35.0921C156.934 35.1801 156.934 35.2701 156.934 35.3581C156.934 35.9191 157.309 36.0661 157.77 36.0661H168.602C168.919 36.0661 169.237 35.8011 169.294 35.4751L169.785 32.5271V32.4381C169.785 32.2021 169.611 32.0551 169.351 32.0551H163.863C163.749 32.0551 163.691 32.0241 163.691 31.9361C163.691 31.9071 163.72 31.8181 163.806 31.7301L170.997 23.3831C171.315 22.9991 171.431 22.6451 171.487 22.3501L171.864 20.1671C171.891 20.0791 171.891 19.9911 171.891 19.9011C171.891 19.3701 171.545 19.1641 171.083 19.1641L160.542 19.1631Z" fill="white"/>
</mask>
<g mask="url(#mask40_1_899)">
<path d="M154.378 19.5581L171.542 16.9021L174.446 35.6691L157.282 38.3261L154.378 19.5581Z" fill="url(#paint5_linear_1_899)"/>
</g>
<mask id="mask41_1_899" style="mask-type:luminance" maskUnits="userSpaceOnUse" x="172" y="13" width="9" height="24">
<path d="M175.764 19.163C175.446 19.163 175.158 19.429 175.1 19.753L172.385 35.474V35.593C172.385 35.859 172.557 36.065 172.846 36.065H176.37C176.687 36.065 177.005 35.8 177.062 35.474L179.777 19.753V19.665C179.777 19.369 179.576 19.163 179.287 19.163H175.764ZM176.66 13.322C176.342 13.322 176.024 13.589 175.967 13.913L175.504 16.656V16.774C175.504 17.039 175.677 17.246 175.967 17.246H179.722C180.038 17.246 180.357 16.981 180.414 16.656L180.876 13.913V13.795C180.876 13.529 180.702 13.322 180.414 13.322H176.66Z" fill="white"/>
</mask>
<g mask="url(#mask41_1_899)">
<path d="M168.948 13.8541L180.677 12.0391L184.313 35.5331L172.585 37.3471L168.948 13.8541Z" fill="url(#paint6_linear_1_899)"/>
</g>
<mask id="mask42_1_899" style="mask-type:luminance" maskUnits="userSpaceOnUse" x="180" y="18" width="17" height="19">
<path d="M185.526 30.548C185.526 30.224 185.555 29.9 185.614 29.574L186.134 26.478C186.537 24.088 187.376 22.85 189.426 22.85C190.234 22.85 191.13 22.938 191.65 23.026L190.234 31.315C189.282 31.876 188.156 32.346 187.173 32.346C185.874 32.347 185.526 31.522 185.526 30.548ZM181.513 26.243C181.426 26.803 181.05 29.015 181.05 29.015C180.963 29.575 180.906 30.106 180.906 30.666C180.906 33.616 182.293 36.33 185.759 36.33C187.289 36.33 188.676 35.858 190.234 34.619L190.12 35.473V35.563C190.12 35.829 190.322 36.064 190.611 36.064H193.556C193.875 36.064 194.163 35.799 194.22 35.473L196.763 20.548C196.791 20.46 196.791 20.372 196.791 20.312C196.791 19.87 196.502 19.782 196.011 19.664C194.134 19.221 191.997 18.927 190.033 18.927C185.498 18.928 182.379 21.11 181.513 26.243Z" fill="white"/>
</mask>
<g mask="url(#mask42_1_899)">
<path d="M178.276 19.3351L196.419 16.5271L199.421 35.9231L181.277 38.7321L178.276 19.3351Z" fill="url(#paint7_linear_1_899)"/>
</g>
<mask id="mask43_1_899" style="mask-type:luminance" maskUnits="userSpaceOnUse" x="140" y="18" width="17" height="19">
<path d="M144.927 30.548C144.927 30.224 144.956 29.9 145.015 29.574L145.535 26.478C145.937 24.088 146.777 22.85 148.827 22.85C149.635 22.85 150.531 22.938 151.051 23.026L149.635 31.315C148.682 31.876 147.557 32.346 146.575 32.346C145.274 32.347 144.927 31.522 144.927 30.548ZM140.913 26.243C140.825 26.803 140.45 29.015 140.45 29.015C140.364 29.575 140.305 30.106 140.305 30.666C140.305 33.616 141.692 36.33 145.158 36.33C146.688 36.33 148.075 35.858 149.634 34.619L149.519 35.473V35.563C149.519 35.829 149.722 36.064 150.01 36.064H152.956C153.274 36.064 153.561 35.799 153.621 35.473L156.162 20.548C156.19 20.46 156.19 20.372 156.19 20.312C156.19 19.87 155.901 19.782 155.411 19.664C153.534 19.221 151.397 18.927 149.432 18.927C144.897 18.928 141.778 21.11 140.913 26.243Z" fill="white"/>
</mask>
<g mask="url(#mask43_1_899)">
<path d="M137.676 19.3351L155.819 16.5271L158.821 35.9231L140.678 38.7321L137.676 19.3351Z" fill="url(#paint8_linear_1_899)"/>
</g>
</g>
<defs>
<linearGradient id="paint0_linear_1_899" x1="58.9002" y1="26.2817" x2="193.149" y2="5.50735" gradientUnits="userSpaceOnUse">
<stop stop-color="#4CAA48"/>
<stop offset="0.1456" stop-color="#00A2E5"/>
<stop offset="0.3678" stop-color="#EB008B"/>
<stop offset="1" stop-color="#99002C"/>
</linearGradient>
<linearGradient id="paint1_linear_1_899" x1="59.5459" y1="30.3866" x2="194.551" y2="9.49527" gradientUnits="userSpaceOnUse">
<stop stop-color="#4CAA48"/>
<stop offset="0.1456" stop-color="#00A2E5"/>
<stop offset="0.3678" stop-color="#EB008B"/>
<stop offset="1" stop-color="#99002C"/>
</linearGradient>
<linearGradient id="paint2_linear_1_899" x1="60.0045" y1="33.1466" x2="195.01" y2="12.2553" gradientUnits="userSpaceOnUse">
<stop stop-color="#4CAA48"/>
<stop offset="0.1456" stop-color="#00A2E5"/>
<stop offset="0.3678" stop-color="#EB008B"/>
<stop offset="1" stop-color="#99002C"/>
</linearGradient>
<linearGradient id="paint3_linear_1_899" x1="60.4625" y1="35.9066" x2="195.468" y2="15.0153" gradientUnits="userSpaceOnUse">
<stop stop-color="#4CAA48"/>
<stop offset="0.1456" stop-color="#00A2E5"/>
<stop offset="0.3678" stop-color="#EB008B"/>
<stop offset="1" stop-color="#99002C"/>
</linearGradient>
<linearGradient id="paint4_linear_1_899" x1="60.5726" y1="38.9899" x2="196.077" y2="18.0213" gradientUnits="userSpaceOnUse">
<stop stop-color="#4CAA48"/>
<stop offset="0.1456" stop-color="#00A2E5"/>
<stop offset="0.3678" stop-color="#EB008B"/>
<stop offset="1" stop-color="#99002C"/>
</linearGradient>
<linearGradient id="paint5_linear_1_899" x1="61.8905" y1="43.3465" x2="196.383" y2="22.5346" gradientUnits="userSpaceOnUse">
<stop stop-color="#4CAA48"/>
<stop offset="0.1456" stop-color="#00A2E5"/>
<stop offset="0.3678" stop-color="#EB008B"/>
<stop offset="1" stop-color="#99002C"/>
</linearGradient>
<linearGradient id="paint6_linear_1_899" x1="61.4814" y1="42.5282" x2="196.487" y2="21.6368" gradientUnits="userSpaceOnUse">
<stop stop-color="#4CAA48"/>
<stop offset="0.1456" stop-color="#00A2E5"/>
<stop offset="0.3678" stop-color="#EB008B"/>
<stop offset="1" stop-color="#99002C"/>
</linearGradient>
<linearGradient id="paint7_linear_1_899" x1="62.171" y1="47.1367" x2="197.176" y2="26.2454" gradientUnits="userSpaceOnUse">
<stop stop-color="#4CAA48"/>
<stop offset="0.1456" stop-color="#00A2E5"/>
<stop offset="0.3678" stop-color="#EB008B"/>
<stop offset="1" stop-color="#99002C"/>
</linearGradient>
<linearGradient id="paint8_linear_1_899" x1="61.1659" y1="41.0221" x2="196.171" y2="20.1308" gradientUnits="userSpaceOnUse">
<stop stop-color="#4CAA48"/>
<stop offset="0.1456" stop-color="#00A2E5"/>
<stop offset="0.3678" stop-color="#EB008B"/>
<stop offset="1" stop-color="#99002C"/>
</linearGradient>
<clipPath id="clip0_1_899">
<rect width="197" height="50" fill="white"/>
</clipPath>
</defs>
</svg>
